<svg xmlns="http://www.w3.org/2000/svg" viewBox="0 0 268.707 268.707"><defs><style>.cls-1{opacity:.1}.cls-2{fill:#fff}</style></defs><g id="scroll" class="cls-1" transform="translate(-896)"><g id="Group_90" data-name="Group 90" transform="translate(896)"><g id="Group_89" data-name="Group 89"><path id="Rectangle_125" data-name="Rectangle 125" class="cls-2" transform="translate(87.12 62.978)" d="M0 0h77.673v20.993H0z"/><path id="Path_65" data-name="Path 65" class="cls-2" d="M226.772 0h-.05q-1.056 0-2.1.054V0H86.6a42.033 42.033 0 0 0-41.99 41.986v142.75h-2.624a41.986 41.986 0 1 0 0 83.971h121.776a42.076 42.076 0 0 0 42.017-41.974V41.98a20.968 20.968 0 1 1 20.942 21v20.991A41.985 41.985 0 0 0 226.772 0zm-99.361 247.714H41.986a20.993 20.993 0 1 1 0-41.986h85.521a41.087 41.087 0 0 0-5.729 20.993 41.727 41.727 0 0 0 5.633 20.993zm57.376-205.737V226.73a21.008 21.008 0 0 1-42.016-.008c0-11.38 9.845-20.993 21.5-20.993v-20.993H65.6V41.986a21.017 21.017 0 0 1 21-20.993h103.836a41.718 41.718 0 0 0-5.649 20.984z"/><path id="Rectangle_126" data-name="Rectangle 126" class="cls-2" transform="translate(87.12 99.716)" d="M0 0h77.148v20.993H0z"/><path id="Rectangle_127" data-name="Rectangle 127" class="cls-2" transform="translate(87.12 136.453)" d="M0 0h60.354v20.993H0z"/></g></g></g></svg>