<svg xmlns="http://www.w3.org/2000/svg" viewBox="0 0 255.383 271.89">
  <defs>
    <style>
      .cls-1 {
        opacity: 0.1;
      }

      .cls-2 {
        fill: #fff;
      }
    </style>
  </defs>
  <g id="article" class="cls-1" transform="translate(-15.535)">
    <g id="Group_92" data-name="Group 92" transform="translate(15.535)">
      <g id="Group_91" data-name="Group 91">
        <path id="Path_69" data-name="Path 69" class="cls-2" d="M260.236,142.742H235.96V9.71c0-5.826-3.884-9.71-9.71-9.71h-201c-5.826,0-9.711,3.884-9.711,9.71V245.671c0,10.682,7.768,26.218,26.218,26.218H244.7c14.566,0,26.218-10.682,26.218-24.276v-94.19C269.946,147.6,266.062,142.742,260.236,142.742ZM41.753,252.469c-4.855,0-6.8-2.913-6.8-6.8V19.421H217.51V245.672a18.959,18.959,0,0,0,.971,6.8ZM251.5,247.614h-.971c0,4.855-5.826,4.855-6.8,4.855-3.884,0-6.8-1.942-6.8-6.8V162.162H251.5v85.451Z" transform="translate(-15.535)"/>
      </g>
    </g>
    <g id="Group_94" data-name="Group 94" transform="translate(40.782 33.987)">
      <g id="Group_93" data-name="Group 93" transform="translate(0)">
        <path id="Path_70" data-name="Path 70" class="cls-2" d="M224.248,63.972H72.767c-5.826,0-9.71,3.884-9.71,9.71v41.754c0,5.826,3.884,9.71,9.71,9.71H224.248c5.826,0,9.71-3.884,9.71-9.71V73.682A9.73,9.73,0,0,0,224.248,63.972Zm-9.71,41.754H82.477V83.392h132.06v22.334Z" transform="translate(-63.057 -63.972)"/>
      </g>
    </g>
    <g id="Group_96" data-name="Group 96" transform="translate(40.782 176.728)">
      <g id="Group_95" data-name="Group 95" transform="translate(0)">
        <path id="Path_71" data-name="Path 71" class="cls-2" d="M131.029,332.65H72.767c-5.826,0-9.71,3.884-9.71,9.71v33.987c0,5.826,3.884,9.71,9.71,9.71H132c5.826,0,9.71-3.884,9.71-9.71V342.36C140.739,336.534,136.855,332.65,131.029,332.65Zm-8.739,33.986H82.477V352.07H122.29Z" transform="translate(-63.057 -332.65)"/>
      </g>
    </g>
    <g id="Group_98" data-name="Group 98" transform="translate(40.782 109.727)">
      <g id="Group_97" data-name="Group 97" transform="translate(0)">
        <path id="Path_72" data-name="Path 72" class="cls-2" d="M224.248,206.536H72.767c-5.826,0-9.71,3.884-9.71,9.71s3.884,9.71,9.71,9.71H224.248c5.826,0,9.71-3.884,9.71-9.71A9.73,9.73,0,0,0,224.248,206.536Z" transform="translate(-63.057 -206.536)"/>
      </g>
    </g>
    <g id="Group_100" data-name="Group 100" transform="translate(40.782 142.742)">
      <g id="Group_99" data-name="Group 99" transform="translate(0)">
        <path id="Path_73" data-name="Path 73" class="cls-2" d="M224.248,268.679H72.767c-5.826,0-9.71,3.884-9.71,9.71s3.884,9.71,9.71,9.71H224.248c5.826,0,9.71-3.884,9.71-9.71C233.959,273.534,229.1,268.679,224.248,268.679Z" transform="translate(-63.057 -268.679)"/>
      </g>
    </g>
    <g id="Group_102" data-name="Group 102" transform="translate(133.03 176.728)">
      <g id="Group_101" data-name="Group 101">
        <path id="Path_74" data-name="Path 74" class="cls-2" d="M305.635,332.65H246.4c-5.826,0-9.71,3.884-9.71,9.71s3.884,9.71,9.71,9.71h59.233c5.826,0,9.71-3.884,9.71-9.71A9.73,9.73,0,0,0,305.635,332.65Z" transform="translate(-236.692 -332.65)"/>
      </g>
    </g>
    <g id="Group_104" data-name="Group 104" transform="translate(133.03 210.715)">
      <g id="Group_103" data-name="Group 103">
        <path id="Path_75" data-name="Path 75" class="cls-2" d="M305.635,396.621H246.4c-5.826,0-9.71,3.884-9.71,9.71s3.884,9.71,9.71,9.71h59.233c5.826,0,9.71-3.884,9.71-9.71A9.73,9.73,0,0,0,305.635,396.621Z" transform="translate(-236.692 -396.621)"/>
      </g>
    </g>
  </g>
</svg>
